<mxfile host="app.diagrams.net" agent="Mozilla/5.0 (Windows NT 10.0; Win64; x64) AppleWebKit/537.36 (KHTML, like Gecko) Chrome/134.0.0.0 Safari/537.36" version="26.1.0">
  <diagram name="Страница — 1" id="pqA3bTSTjVawT73ME_2Y">
    <mxGraphModel dx="954" dy="2930" grid="1" gridSize="10" guides="1" tooltips="1" connect="1" arrows="1" fold="1" page="1" pageScale="1" pageWidth="827" pageHeight="1169" math="0" shadow="0">
      <root>
        <mxCell id="0" />
        <mxCell id="1" parent="0" />
        <mxCell id="qWKRciEA4nI_EHNcZ7h8-1" value="" style="ellipse;whiteSpace=wrap;html=1;" vertex="1" parent="1">
          <mxGeometry x="237" y="-2210" width="73" height="30" as="geometry" />
        </mxCell>
        <mxCell id="qWKRciEA4nI_EHNcZ7h8-2" value="" style="ellipse;whiteSpace=wrap;html=1;" vertex="1" parent="1">
          <mxGeometry x="242" y="-2100" width="60" height="30" as="geometry" />
        </mxCell>
        <mxCell id="qWKRciEA4nI_EHNcZ7h8-3" value="" style="sketch=0;points=[[0.015,0.015,0],[0.985,0.015,0],[0.985,0.985,0],[0.015,0.985,0],[0.25,0,0],[0.5,0,0],[0.75,0,0],[1,0.25,0],[1,0.5,0],[1,0.75,0],[0.75,1,0],[0.5,1,0],[0.25,1,0],[0,0.75,0],[0,0.5,0],[0,0.25,0]];verticalLabelPosition=bottom;html=1;verticalAlign=top;aspect=fixed;align=center;pointerEvents=1;shape=mxgraph.cisco19.rect;prIcon=l3_switch;fillColor=#FAFAFA;strokeColor=#005073;" vertex="1" parent="1">
          <mxGeometry x="247" y="-2060" width="50" height="50" as="geometry" />
        </mxCell>
        <mxCell id="qWKRciEA4nI_EHNcZ7h8-4" style="edgeStyle=orthogonalEdgeStyle;rounded=0;orthogonalLoop=1;jettySize=auto;html=1;exitX=0;exitY=0.5;exitDx=0;exitDy=0;exitPerimeter=0;" edge="1" parent="1" source="qWKRciEA4nI_EHNcZ7h8-5" target="qWKRciEA4nI_EHNcZ7h8-20">
          <mxGeometry relative="1" as="geometry" />
        </mxCell>
        <mxCell id="qWKRciEA4nI_EHNcZ7h8-5" value="" style="sketch=0;points=[[0.015,0.015,0],[0.985,0.015,0],[0.985,0.985,0],[0.015,0.985,0],[0.25,0,0],[0.5,0,0],[0.75,0,0],[1,0.25,0],[1,0.5,0],[1,0.75,0],[0.75,1,0],[0.5,1,0],[0.25,1,0],[0,0.75,0],[0,0.5,0],[0,0.25,0]];verticalLabelPosition=bottom;html=1;verticalAlign=top;aspect=fixed;align=center;pointerEvents=1;shape=mxgraph.cisco19.rect;prIcon=l3_switch;fillColor=#FAFAFA;strokeColor=#005073;" vertex="1" parent="1">
          <mxGeometry x="247" y="-2160" width="50" height="50" as="geometry" />
        </mxCell>
        <mxCell id="qWKRciEA4nI_EHNcZ7h8-6" value="" style="sketch=0;points=[[0.5,0,0],[1,0.5,0],[0.5,1,0],[0,0.5,0],[0.145,0.145,0],[0.8555,0.145,0],[0.855,0.8555,0],[0.145,0.855,0]];verticalLabelPosition=bottom;html=1;verticalAlign=top;aspect=fixed;align=center;pointerEvents=1;shape=mxgraph.cisco19.rect;prIcon=router;fillColor=#FAFAFA;strokeColor=#005073;" vertex="1" parent="1">
          <mxGeometry x="237" y="-2290" width="70" height="70" as="geometry" />
        </mxCell>
        <mxCell id="qWKRciEA4nI_EHNcZ7h8-7" value="" style="points=[[0.13,0.02,0],[0.5,0,0],[0.87,0.02,0],[0.885,0.4,0],[0.985,0.985,0],[0.5,1,0],[0.015,0.985,0],[0.115,0.4,0]];verticalLabelPosition=bottom;sketch=0;html=1;verticalAlign=top;aspect=fixed;align=center;pointerEvents=1;shape=mxgraph.cisco19.laptop;fillColor=#005073;strokeColor=none;" vertex="1" parent="1">
          <mxGeometry x="451" y="-1850" width="50" height="35" as="geometry" />
        </mxCell>
        <mxCell id="qWKRciEA4nI_EHNcZ7h8-8" value="" style="points=[[0.13,0.02,0],[0.5,0,0],[0.87,0.02,0],[0.885,0.4,0],[0.985,0.985,0],[0.5,1,0],[0.015,0.985,0],[0.115,0.4,0]];verticalLabelPosition=bottom;sketch=0;html=1;verticalAlign=top;aspect=fixed;align=center;pointerEvents=1;shape=mxgraph.cisco19.laptop;fillColor=#005073;strokeColor=none;" vertex="1" parent="1">
          <mxGeometry x="347" y="-1850" width="50" height="35" as="geometry" />
        </mxCell>
        <mxCell id="qWKRciEA4nI_EHNcZ7h8-9" value="" style="points=[[0.03,0.03,0],[0.5,0,0],[0.97,0.03,0],[1,0.4,0],[0.97,0.745,0],[0.5,1,0],[0.03,0.745,0],[0,0.4,0]];verticalLabelPosition=bottom;sketch=0;html=1;verticalAlign=top;aspect=fixed;align=center;pointerEvents=1;shape=mxgraph.cisco19.workstation;fillColor=#005073;strokeColor=none;" vertex="1" parent="1">
          <mxGeometry x="247" y="-1945" width="50" height="40" as="geometry" />
        </mxCell>
        <mxCell id="qWKRciEA4nI_EHNcZ7h8-10" value="" style="shape=mxgraph.cisco.buildings.branch_office;sketch=0;html=1;pointerEvents=1;dashed=0;fillColor=#036897;strokeColor=#ffffff;strokeWidth=2;verticalLabelPosition=bottom;verticalAlign=top;align=center;outlineConnect=0;" vertex="1" parent="1">
          <mxGeometry x="10" y="-2330" width="80" height="110" as="geometry" />
        </mxCell>
        <mxCell id="qWKRciEA4nI_EHNcZ7h8-11" style="edgeStyle=orthogonalEdgeStyle;rounded=0;orthogonalLoop=1;jettySize=auto;html=1;exitX=0.5;exitY=1;exitDx=0;exitDy=0;exitPerimeter=0;" edge="1" parent="1" source="qWKRciEA4nI_EHNcZ7h8-12" target="qWKRciEA4nI_EHNcZ7h8-8">
          <mxGeometry relative="1" as="geometry" />
        </mxCell>
        <mxCell id="qWKRciEA4nI_EHNcZ7h8-12" value="" style="points=[[0.03,0.36,0],[0.18,0,0],[0.5,0.34,0],[0.82,0,0],[0.97,0.36,0],[1,0.67,0],[0.975,0.975,0],[0.5,1,0],[0.025,0.975,0],[0,0.67,0]];verticalLabelPosition=bottom;sketch=0;html=1;verticalAlign=top;aspect=fixed;align=center;pointerEvents=1;shape=mxgraph.cisco19.wireless_access_point;fillColor=#005073;strokeColor=none;" vertex="1" parent="1">
          <mxGeometry x="377" y="-1965" width="50" height="50" as="geometry" />
        </mxCell>
        <mxCell id="qWKRciEA4nI_EHNcZ7h8-13" style="edgeStyle=orthogonalEdgeStyle;rounded=0;orthogonalLoop=1;jettySize=auto;html=1;exitX=0.03;exitY=0.36;exitDx=0;exitDy=0;exitPerimeter=0;entryX=0.03;entryY=0.36;entryDx=0;entryDy=0;entryPerimeter=0;" edge="1" parent="1">
          <mxGeometry relative="1" as="geometry">
            <mxPoint x="122.5" y="-1012" as="sourcePoint" />
            <mxPoint x="122.5" y="-1012" as="targetPoint" />
          </mxGeometry>
        </mxCell>
        <mxCell id="qWKRciEA4nI_EHNcZ7h8-14" style="edgeStyle=orthogonalEdgeStyle;rounded=0;orthogonalLoop=1;jettySize=auto;html=1;exitX=0.855;exitY=0.8555;exitDx=0;exitDy=0;exitPerimeter=0;entryX=0.75;entryY=0;entryDx=0;entryDy=0;entryPerimeter=0;" edge="1" parent="1" source="qWKRciEA4nI_EHNcZ7h8-6" target="qWKRciEA4nI_EHNcZ7h8-5">
          <mxGeometry relative="1" as="geometry" />
        </mxCell>
        <mxCell id="qWKRciEA4nI_EHNcZ7h8-15" style="edgeStyle=orthogonalEdgeStyle;rounded=0;orthogonalLoop=1;jettySize=auto;html=1;exitX=0.145;exitY=0.855;exitDx=0;exitDy=0;exitPerimeter=0;entryX=0.25;entryY=0;entryDx=0;entryDy=0;entryPerimeter=0;" edge="1" parent="1" source="qWKRciEA4nI_EHNcZ7h8-6" target="qWKRciEA4nI_EHNcZ7h8-5">
          <mxGeometry relative="1" as="geometry" />
        </mxCell>
        <mxCell id="qWKRciEA4nI_EHNcZ7h8-16" style="edgeStyle=orthogonalEdgeStyle;rounded=0;orthogonalLoop=1;jettySize=auto;html=1;exitX=0.25;exitY=1;exitDx=0;exitDy=0;exitPerimeter=0;entryX=0.25;entryY=0;entryDx=0;entryDy=0;entryPerimeter=0;" edge="1" parent="1" source="qWKRciEA4nI_EHNcZ7h8-5" target="qWKRciEA4nI_EHNcZ7h8-3">
          <mxGeometry relative="1" as="geometry" />
        </mxCell>
        <mxCell id="qWKRciEA4nI_EHNcZ7h8-17" style="edgeStyle=orthogonalEdgeStyle;rounded=0;orthogonalLoop=1;jettySize=auto;html=1;exitX=0.75;exitY=1;exitDx=0;exitDy=0;exitPerimeter=0;entryX=0.75;entryY=0;entryDx=0;entryDy=0;entryPerimeter=0;" edge="1" parent="1" source="qWKRciEA4nI_EHNcZ7h8-5" target="qWKRciEA4nI_EHNcZ7h8-3">
          <mxGeometry relative="1" as="geometry" />
        </mxCell>
        <mxCell id="qWKRciEA4nI_EHNcZ7h8-18" style="edgeStyle=orthogonalEdgeStyle;rounded=0;orthogonalLoop=1;jettySize=auto;html=1;exitX=0.5;exitY=1;exitDx=0;exitDy=0;exitPerimeter=0;entryX=0.5;entryY=0;entryDx=0;entryDy=0;entryPerimeter=0;" edge="1" parent="1" source="qWKRciEA4nI_EHNcZ7h8-12" target="qWKRciEA4nI_EHNcZ7h8-7">
          <mxGeometry relative="1" as="geometry" />
        </mxCell>
        <mxCell id="qWKRciEA4nI_EHNcZ7h8-19" style="edgeStyle=orthogonalEdgeStyle;rounded=0;orthogonalLoop=1;jettySize=auto;html=1;exitX=0.5;exitY=1;exitDx=0;exitDy=0;exitPerimeter=0;entryX=0.5;entryY=0;entryDx=0;entryDy=0;entryPerimeter=0;" edge="1" parent="1" source="qWKRciEA4nI_EHNcZ7h8-3" target="qWKRciEA4nI_EHNcZ7h8-9">
          <mxGeometry relative="1" as="geometry" />
        </mxCell>
        <mxCell id="qWKRciEA4nI_EHNcZ7h8-20" value="" style="shape=mxgraph.cisco.servers.fileserver;sketch=0;html=1;pointerEvents=1;dashed=0;fillColor=#036897;strokeColor=#ffffff;strokeWidth=2;verticalLabelPosition=bottom;verticalAlign=top;align=center;outlineConnect=0;" vertex="1" parent="1">
          <mxGeometry x="100" y="-2166" width="43" height="62" as="geometry" />
        </mxCell>
        <mxCell id="qWKRciEA4nI_EHNcZ7h8-21" style="edgeStyle=orthogonalEdgeStyle;rounded=0;orthogonalLoop=1;jettySize=auto;html=1;exitX=0.25;exitY=0;exitDx=0;exitDy=0;exitPerimeter=0;entryX=0.25;entryY=1;entryDx=0;entryDy=0;entryPerimeter=0;" edge="1" parent="1" source="qWKRciEA4nI_EHNcZ7h8-3" target="qWKRciEA4nI_EHNcZ7h8-5">
          <mxGeometry relative="1" as="geometry" />
        </mxCell>
        <mxCell id="qWKRciEA4nI_EHNcZ7h8-22" style="edgeStyle=orthogonalEdgeStyle;rounded=0;orthogonalLoop=1;jettySize=auto;html=1;exitX=0.75;exitY=0;exitDx=0;exitDy=0;exitPerimeter=0;entryX=0.75;entryY=1;entryDx=0;entryDy=0;entryPerimeter=0;" edge="1" parent="1" source="qWKRciEA4nI_EHNcZ7h8-3" target="qWKRciEA4nI_EHNcZ7h8-5">
          <mxGeometry relative="1" as="geometry" />
        </mxCell>
        <mxCell id="qWKRciEA4nI_EHNcZ7h8-23" style="edgeStyle=orthogonalEdgeStyle;rounded=0;orthogonalLoop=1;jettySize=auto;html=1;exitX=0.75;exitY=0;exitDx=0;exitDy=0;exitPerimeter=0;entryX=0.855;entryY=0.8555;entryDx=0;entryDy=0;entryPerimeter=0;" edge="1" parent="1" source="qWKRciEA4nI_EHNcZ7h8-1" target="qWKRciEA4nI_EHNcZ7h8-6">
          <mxGeometry relative="1" as="geometry" />
        </mxCell>
        <mxCell id="qWKRciEA4nI_EHNcZ7h8-24" style="edgeStyle=orthogonalEdgeStyle;rounded=0;orthogonalLoop=1;jettySize=auto;html=1;exitX=0.25;exitY=0;exitDx=0;exitDy=0;exitPerimeter=0;entryX=0.145;entryY=0.855;entryDx=0;entryDy=0;entryPerimeter=0;" edge="1" parent="1" source="qWKRciEA4nI_EHNcZ7h8-5" target="qWKRciEA4nI_EHNcZ7h8-6">
          <mxGeometry relative="1" as="geometry" />
        </mxCell>
        <mxCell id="qWKRciEA4nI_EHNcZ7h8-25" value="RO-01&lt;br&gt;bridge1(eth4/5) IP: 192.168.149.254 /24" style="text;html=1;align=center;verticalAlign=middle;whiteSpace=wrap;rounded=0;" vertex="1" parent="1">
          <mxGeometry x="307" y="-2270" width="246" height="30" as="geometry" />
        </mxCell>
        <mxCell id="qWKRciEA4nI_EHNcZ7h8-26" value="SW-01" style="text;html=1;align=center;verticalAlign=middle;whiteSpace=wrap;rounded=0;" vertex="1" parent="1">
          <mxGeometry x="297" y="-2150" width="60" height="30" as="geometry" />
        </mxCell>
        <mxCell id="qWKRciEA4nI_EHNcZ7h8-27" value="SW-02" style="text;html=1;align=center;verticalAlign=middle;whiteSpace=wrap;rounded=0;" vertex="1" parent="1">
          <mxGeometry x="297" y="-2050" width="60" height="30" as="geometry" />
        </mxCell>
        <mxCell id="qWKRciEA4nI_EHNcZ7h8-28" style="edgeStyle=orthogonalEdgeStyle;rounded=0;orthogonalLoop=1;jettySize=auto;html=1;exitX=0.985;exitY=0.985;exitDx=0;exitDy=0;exitPerimeter=0;entryX=0.82;entryY=0;entryDx=0;entryDy=0;entryPerimeter=0;" edge="1" parent="1" source="qWKRciEA4nI_EHNcZ7h8-3" target="qWKRciEA4nI_EHNcZ7h8-12">
          <mxGeometry relative="1" as="geometry" />
        </mxCell>
        <mxCell id="qWKRciEA4nI_EHNcZ7h8-29" value="Raspberry Pi4&amp;nbsp;&lt;br&gt;DHCP-CLIENT" style="text;html=1;align=center;verticalAlign=middle;whiteSpace=wrap;rounded=0;" vertex="1" parent="1">
          <mxGeometry x="229.5" y="-1905" width="85" height="30" as="geometry" />
        </mxCell>
        <mxCell id="qWKRciEA4nI_EHNcZ7h8-30" value="Laptop 1&lt;br&gt;DHCP-CLIENT" style="text;html=1;align=center;verticalAlign=middle;whiteSpace=wrap;rounded=0;" vertex="1" parent="1">
          <mxGeometry x="329.5" y="-1815" width="85" height="30" as="geometry" />
        </mxCell>
        <mxCell id="qWKRciEA4nI_EHNcZ7h8-31" value="Laptop2&lt;br&gt;DHCP-CLIENT" style="text;html=1;align=center;verticalAlign=middle;whiteSpace=wrap;rounded=0;" vertex="1" parent="1">
          <mxGeometry x="430.5" y="-1815" width="91" height="30" as="geometry" />
        </mxCell>
        <mxCell id="qWKRciEA4nI_EHNcZ7h8-32" value="Wireless AP&lt;br&gt;192.168.149.240" style="text;html=1;align=center;verticalAlign=middle;whiteSpace=wrap;rounded=0;" vertex="1" parent="1">
          <mxGeometry x="427" y="-1940" width="100" height="30" as="geometry" />
        </mxCell>
        <mxCell id="qWKRciEA4nI_EHNcZ7h8-33" value="&lt;font style=&quot;font-size: 28px;&quot;&gt;192.168.149.0&lt;/font&gt;" style="text;html=1;align=center;verticalAlign=middle;whiteSpace=wrap;rounded=0;" vertex="1" parent="1">
          <mxGeometry x="587" y="-2338" width="240" height="50" as="geometry" />
        </mxCell>
        <mxCell id="qWKRciEA4nI_EHNcZ7h8-34" value="ESXI-SRV&lt;br&gt;192.168.149.200" style="text;html=1;align=center;verticalAlign=middle;whiteSpace=wrap;rounded=0;" vertex="1" parent="1">
          <mxGeometry y="-2150" width="100" height="30" as="geometry" />
        </mxCell>
        <mxCell id="qWKRciEA4nI_EHNcZ7h8-35" value="&lt;h1 style=&quot;margin-top: 0px;&quot;&gt;DHCP-POOL&lt;/h1&gt;&lt;div&gt;192.168.1.1 - 192.168.1.100 / 24&lt;br&gt;&lt;br&gt;&lt;/div&gt;" style="text;html=1;whiteSpace=wrap;overflow=hidden;rounded=0;" vertex="1" parent="1">
          <mxGeometry x="620" y="-2224" width="180" height="84" as="geometry" />
        </mxCell>
        <mxCell id="qWKRciEA4nI_EHNcZ7h8-36" style="edgeStyle=orthogonalEdgeStyle;rounded=0;orthogonalLoop=1;jettySize=auto;html=1;exitX=1;exitY=0.5;exitDx=0;exitDy=0;exitPerimeter=0;entryX=0.169;entryY=0.514;entryDx=0;entryDy=0;entryPerimeter=0;" edge="1" parent="1" source="qWKRciEA4nI_EHNcZ7h8-20" target="qWKRciEA4nI_EHNcZ7h8-5">
          <mxGeometry relative="1" as="geometry" />
        </mxCell>
        <mxCell id="qWKRciEA4nI_EHNcZ7h8-37" value="Band (1-2)" style="text;html=1;align=center;verticalAlign=middle;whiteSpace=wrap;rounded=0;" vertex="1" parent="1">
          <mxGeometry x="310" y="-2100" width="60" height="30" as="geometry" />
        </mxCell>
        <mxCell id="qWKRciEA4nI_EHNcZ7h8-38" value="" style="edgeStyle=orthogonalEdgeStyle;rounded=0;orthogonalLoop=1;jettySize=auto;html=1;exitX=0.75;exitY=0;exitDx=0;exitDy=0;exitPerimeter=0;entryX=0.855;entryY=0.8555;entryDx=0;entryDy=0;entryPerimeter=0;" edge="1" parent="1" source="qWKRciEA4nI_EHNcZ7h8-5" target="qWKRciEA4nI_EHNcZ7h8-1">
          <mxGeometry relative="1" as="geometry">
            <mxPoint x="285" y="-2160" as="sourcePoint" />
            <mxPoint x="297" y="-2230" as="targetPoint" />
          </mxGeometry>
        </mxCell>
        <mxCell id="qWKRciEA4nI_EHNcZ7h8-39" value="Band (11-12)" style="text;html=1;align=center;verticalAlign=middle;whiteSpace=wrap;rounded=0;" vertex="1" parent="1">
          <mxGeometry x="314.5" y="-2210" width="75.5" height="30" as="geometry" />
        </mxCell>
      </root>
    </mxGraphModel>
  </diagram>
</mxfile>
